<svg width="368" height="173" viewBox="0 0 368 173" fill="none" xmlns="http://www.w3.org/2000/svg">
<path d="M173.717 0.1596C172.867 0.387684 172.162 0.802382 171.478 1.497C170.503 2.48191 169.964 3.6638 169.808 5.16708L169.746 5.8928L169.414 5.40553C169.01 4.80422 168.212 4.19254 167.538 3.96445C166.802 3.726 165.693 3.74674 165.091 4.00592C164.407 4.30658 163.806 4.89752 163.474 5.57141C163.09 6.34897 163.07 7.48939 163.412 8.13217C163.661 8.5987 164.179 9.12744 164.625 9.34516C164.884 9.47994 164.044 9.50067 157.212 9.56288C152.972 9.60435 143.807 9.63545 136.85 9.64582C129.894 9.64582 123.974 9.68729 123.684 9.72876C123.062 9.8117 159.482 9.94647 183.67 9.94647C207.816 9.94647 244.153 9.8117 243.531 9.72876C243.251 9.68729 237.301 9.64582 230.313 9.64582C212.377 9.63545 202.124 9.53177 202.497 9.37626C203.866 8.79569 204.405 7.03322 203.679 5.54031C203.306 4.78348 202.922 4.43099 202.113 4.05776C201.44 3.74674 200.361 3.70527 199.625 3.97482C198.889 4.24438 198.101 4.84569 197.728 5.4159L197.396 5.93427L197.375 5.4781C197.23 3.03138 195.872 1.03047 193.84 0.273642C192.98 -0.047749 191.311 -0.0373816 190.491 0.284009C189.216 0.792014 188.273 1.74582 187.879 2.93808C187.754 3.29057 187.703 3.80894 187.703 4.5554C187.703 5.64398 187.537 6.56668 187.246 7.12653C187.112 7.38571 187.101 7.36498 187.153 6.7844C187.226 5.90317 186.904 5.09451 186.21 4.39989C185.432 3.6327 185.049 3.47718 183.804 3.43571C183.234 3.41498 182.581 3.44608 182.353 3.50829C181.69 3.68453 180.881 4.32731 180.456 5.01157C180.103 5.60251 180.083 5.66472 180.083 6.55632V7.47902L179.834 6.92954C179.616 6.45264 179.564 6.15199 179.502 4.81458C179.429 3.13506 179.315 2.67889 178.797 1.92207C177.74 0.387684 175.604 -0.348405 173.717 0.1596ZM176.143 0.874954C176.962 1.09267 177.677 1.497 178.165 2.02574C178.807 2.72036 179.025 3.23873 179.077 4.20291C179.118 4.95973 179.087 5.11524 178.849 5.65435C178.31 6.83624 177.294 7.56196 176.195 7.56196C175.428 7.56196 174.94 7.40645 174.412 7.01248C173.313 6.17272 173.105 4.72128 173.966 3.86078C174.36 3.46682 174.712 3.42535 175.355 3.68453C175.842 3.88151 176.288 3.84004 176.444 3.59123C176.599 3.34241 176.433 3.10396 175.946 2.85514C175.034 2.39897 173.707 3.16616 173.354 4.35842C173.147 5.0323 173.147 5.31222 173.344 5.96537C173.541 6.62889 173.966 7.13689 174.65 7.51012C175.158 7.79004 175.303 7.82115 176.143 7.82115C176.952 7.82115 177.149 7.77968 177.594 7.54122C178.154 7.25094 178.641 6.7844 178.973 6.23493L179.181 5.88243L179.253 6.4008C179.388 7.42718 180.103 8.58834 181.005 9.24149L181.41 9.53177H176.889H172.38L171.944 9.03414C170.233 7.09542 170.285 3.99556 172.058 2.11905C173.157 0.957894 174.671 0.491358 176.143 0.874954ZM193.021 0.874954C193.882 1.10304 194.4 1.39333 195.022 2.00501C195.893 2.88624 196.505 4.35842 196.515 5.61288C196.515 6.73256 196.038 8.03886 195.281 8.9823L194.856 9.53177L190.315 9.52141C186.065 9.52141 185.805 9.51104 186.044 9.34516C186.842 8.82679 187.723 7.52049 187.869 6.63926C187.983 5.955 188.003 5.94464 188.366 6.48374C189.154 7.65527 190.72 8.17364 192.088 7.7071C192.689 7.49975 193.477 6.8155 193.726 6.26603C193.985 5.70619 193.985 4.63834 193.726 4.08886C193.343 3.25947 192.679 2.78256 191.85 2.75146C191.062 2.73073 190.554 3.15579 190.751 3.67417C190.823 3.87115 191.497 3.87115 191.85 3.67417C192.192 3.47718 192.783 3.47718 193.073 3.68453C193.674 4.09923 193.892 5.25002 193.519 6.05868C192.741 7.77968 190.139 8.08033 188.885 6.60815C188.335 5.94464 188.066 5.20855 188.076 4.34805C188.076 3.38388 188.345 2.74109 189.03 2.03611C190.087 0.947526 191.611 0.501726 193.021 0.874954ZM167.87 4.54503C168.979 5.0634 169.591 5.87206 170.088 7.45828C170.223 7.88335 170.524 8.52613 170.762 8.87862L171.198 9.53177H168.906C166.615 9.53177 166.605 9.53177 166.926 9.33479C168.129 8.60907 168.43 7.03322 167.559 6.03794C167.154 5.57141 166.709 5.38479 166.035 5.38479C165.392 5.38479 164.998 5.57141 164.614 6.07941C164.376 6.39044 164.324 6.55632 164.324 7.06432C164.324 7.6449 164.345 7.7071 164.708 8.03886C165.122 8.41209 165.516 8.49503 165.724 8.23584C165.838 8.10107 165.827 8.00776 165.693 7.7071C165.454 7.21983 165.475 6.95028 165.744 6.65999C166.076 6.3075 166.501 6.34897 166.937 6.7844C167.279 7.12653 167.3 7.18873 167.248 7.62416C167.113 8.86826 165.858 9.44883 164.687 8.80605C163.609 8.20474 163.277 6.83624 163.93 5.68545C164.739 4.25474 166.273 3.80894 167.87 4.54503ZM181.918 4.37915C181.347 4.98046 181.202 6.22456 181.596 6.93991C181.866 7.40645 182.343 7.69674 182.778 7.6449C183.079 7.6138 183.089 7.59306 183.068 7.14726C183.068 6.88807 183.027 6.34897 182.985 5.955C182.934 5.32259 182.954 5.18781 183.131 4.88716C183.431 4.42062 183.639 4.35842 183.877 4.66944C184.271 5.16708 184.333 5.63361 184.136 6.47338C183.919 7.40645 184.001 7.66563 184.541 7.66563C185.287 7.66563 185.909 6.71183 185.816 5.69582C185.785 5.36406 185.65 4.99083 185.443 4.65907C185.266 4.36878 185.163 4.1407 185.214 4.1407C185.453 4.1407 186.22 4.86642 186.448 5.32259C186.977 6.35933 186.728 7.59306 185.785 8.5365C185.111 9.20002 184.489 9.46957 183.608 9.46957C182.737 9.46957 182.125 9.23112 181.461 8.61944C180.072 7.33387 180.155 5.23965 181.627 4.33768C182.063 4.06813 182.187 4.08886 181.918 4.37915ZM201.585 4.30658C203.057 4.74201 203.959 6.52521 203.368 7.82115C203.046 8.54687 202.196 9.11708 201.45 9.11708C201.077 9.11708 200.361 8.69201 200.144 8.34988C199.843 7.85225 199.864 7.10579 200.185 6.7844C200.921 6.04831 201.979 6.63926 201.554 7.54122C201.315 8.02849 201.346 8.27731 201.637 8.34988C201.948 8.42246 202.445 8.17364 202.673 7.83151C202.932 7.41681 202.891 6.55632 202.59 6.10015C202.062 5.33296 200.88 5.13598 200.019 5.68545C198.775 6.47338 198.837 8.41209 200.123 9.23112L200.6 9.53177H198.298H195.997L196.411 8.89936C196.629 8.55723 196.94 7.89372 197.096 7.42718C197.458 6.32823 197.687 5.88243 198.143 5.37443C198.609 4.85605 199.2 4.50356 199.936 4.30658C200.683 4.1096 200.932 4.1096 201.585 4.30658ZM182.436 5.16708C182.405 5.52994 182.446 5.79949 182.612 6.16235C182.871 6.74293 182.892 7.07469 182.674 7.25094C182.073 7.74857 181.503 6.25566 181.959 5.35369C182.104 5.0634 182.405 4.65907 182.467 4.65907C182.477 4.65907 182.467 4.88716 182.436 5.16708ZM185.225 5.43663C185.453 5.93427 185.474 6.43191 185.277 6.82587C185.069 7.21983 184.841 7.38571 184.603 7.30277C184.281 7.1991 184.25 6.89844 184.509 6.29713C184.655 5.96537 184.748 5.55067 184.738 5.26039C184.738 4.83532 184.758 4.78348 184.883 4.89752C184.976 4.95973 185.121 5.20855 185.225 5.43663Z" fill="#5E0070"/>
<path d="M131.988 20.1065C127.178 20.8633 122.896 24.4194 120.791 29.4372C118.728 34.3203 118.821 39.9809 121.05 44.7603C122.865 48.6688 126.162 51.748 129.832 52.9713C131.345 53.469 132.403 53.6245 134.051 53.5623C135.264 53.5208 135.648 53.469 136.384 53.2305C137.576 52.8469 138.675 52.2663 140.158 51.2296C141.422 50.338 141.92 50.0684 142.293 50.0684C142.946 50.0684 143.6 50.8771 143.714 51.8205L143.776 52.3493H144.17H144.574V46.9582V41.5671H144.159H143.745V42.1995C143.745 43.1222 143.372 44.7914 142.915 45.9526C141.713 48.9488 139.587 51.1985 136.933 52.256C135.731 52.7432 134.756 52.8988 133.325 52.8469C131.325 52.764 129.956 52.2041 128.577 50.9082C127.675 50.0477 127.074 49.2079 126.483 47.9742C125.146 45.1543 124.555 41.7226 124.544 36.8499C124.544 33.4701 124.772 31.2411 125.353 28.9085C126.452 24.4816 128.401 21.9934 131.511 21.0188C132.185 20.8115 132.486 20.7804 133.792 20.7908C135.109 20.8011 135.409 20.8322 136.208 21.0707C137.286 21.4024 138.374 21.9312 139.235 22.5429C140.158 23.196 141.64 24.8133 142.231 25.7879C143.102 27.2497 143.745 29.261 143.745 30.5362V31.096H144.159H144.574V26.2233V21.3506H144.17H143.776L143.724 21.8793C143.662 22.491 143.403 22.885 142.905 23.1338C142.127 23.5381 141.547 23.3515 139.639 22.066C137.348 20.5316 136.176 20.1065 133.999 20.0547C133.232 20.0339 132.32 20.0547 131.988 20.1065Z" fill="#5E0070"/>
<path d="M159.762 20.1274C159.731 20.2 157.45 27.0217 154.703 35.295C151.945 43.5578 149.592 50.5248 149.468 50.7528C149.157 51.3749 148.731 51.8414 148.337 51.9969C148.12 52.0902 147.581 52.1421 146.803 52.1421H145.611V52.5049V52.8678H150.328H155.045V52.5049V52.1421H153.521C151.8 52.1421 151.354 52.0591 150.95 51.6444C150.473 51.1675 150.577 50.6388 151.987 46.3052L153.221 42.5003H158.114H163.007L164.552 47.0828C165.413 49.6124 166.138 51.7792 166.18 51.9036L166.252 52.1421H164.023H161.784V52.5049V52.8678H168.471H175.158V52.5049V52.1421L173.282 52.1213L171.395 52.0902L166.335 37.4203C163.547 29.3544 161.058 22.1283 160.789 21.3715C160.353 20.1274 160.291 20.003 160.063 20.003C159.918 20.003 159.783 20.0652 159.762 20.1274ZM160.416 34.8284C161.68 38.5607 162.717 41.6502 162.717 41.6917C162.717 41.7435 160.664 41.7746 158.155 41.7746C154.579 41.7746 153.594 41.7435 153.594 41.6398C153.583 41.391 157.99 27.8822 158.052 27.9652C158.093 28.0067 159.151 31.0962 160.416 34.8284Z" fill="#5E0070"/>
<path d="M183.296 20.148C179.647 20.8634 177.159 23.5797 176.599 27.4571C176.33 29.3336 176.651 32.4646 177.263 33.9575C178.403 36.7567 180.487 37.8764 186.531 38.9235C189.361 39.4108 190.429 39.6907 191.622 40.2816C193.923 41.4117 194.856 43.2052 194.721 46.2844C194.67 47.6114 194.442 48.4408 193.861 49.4879C193.146 50.7735 191.715 51.8724 190.025 52.4634C189.009 52.8055 188.988 52.8159 187.184 52.8055C185.66 52.8055 185.246 52.764 184.572 52.5774C182.633 52.0487 181.669 51.4992 180.331 50.1722C179.212 49.0629 178.569 48.0779 178.061 46.6783C177.657 45.5379 177.346 44.0139 177.263 42.6661L177.2 41.5672H176.848H176.506V47.373V53.1787H176.869C177.211 53.1787 177.232 53.158 177.232 52.8366C177.232 52.3079 177.418 51.7791 177.698 51.5199C178.123 51.126 178.745 51.1882 180.093 51.7791C183.525 53.272 184.302 53.4898 186.521 53.5623C188.366 53.6349 189.424 53.5001 190.761 53.0647C194.141 51.945 196.266 49.1873 196.836 45.2165C197.023 43.9102 196.909 41.0073 196.629 39.981C196.183 38.3014 195.178 36.9018 193.747 35.9584C192.285 35.0046 190.854 34.5381 187.039 33.7916C182.021 32.7963 180.425 32.2054 179.367 30.9717C178.87 30.3911 178.59 29.6031 178.486 28.4627C178.258 26.0367 178.88 23.984 180.28 22.6051C181.057 21.8172 181.69 21.444 182.778 21.0707C183.535 20.8116 183.742 20.7908 185.163 20.7908C186.894 20.8012 187.796 20.9774 189.04 21.558C191.756 22.8332 193.674 25.6843 194.234 29.2818C194.296 29.6757 194.369 30.163 194.4 30.3392C194.442 30.6503 194.483 30.6814 194.804 30.6814H195.167V25.8501V21.0293L194.784 21.0604C194.431 21.0915 194.4 21.1226 194.265 21.6098C194.079 22.2319 193.695 22.6777 193.239 22.7606C192.835 22.8332 192.368 22.6466 190.854 21.7446C188.656 20.4487 187.558 20.1066 185.422 20.0444C184.499 20.0236 183.773 20.0547 183.296 20.148Z" fill="#5E0070"/>
<path d="M204.975 34.59C202.3 42.6248 199.978 49.5398 199.812 49.9753C199.107 51.8311 198.703 52.1317 196.857 52.1421H195.686V52.5049V52.8678H200.403H205.12V52.5153V52.1628L203.389 52.1213C201.46 52.0902 201.066 51.9762 200.786 51.3749C200.569 50.9291 200.735 50.2241 202.062 46.1704L203.264 42.5003L208.158 42.5211L213.051 42.5522L214.668 47.3212L216.286 52.0902L214.078 52.1213L211.859 52.1421V52.5049V52.8678H218.546H225.233V52.5049V52.1421H223.336H221.438L215.902 36.0725C210.522 20.4799 210.345 20.003 210.096 20.003C209.848 20.003 209.713 20.3866 204.975 34.59ZM210.449 34.8284C211.724 38.5607 212.74 41.6502 212.719 41.6917C212.668 41.785 203.565 41.8057 203.565 41.7124C203.565 41.6502 207.857 28.3177 207.992 27.9859C208.064 27.7889 207.743 26.9181 210.449 34.8284Z" fill="#5E0070"/>
<path d="M234.377 20.117C232.832 20.3762 231.287 21.133 230.157 22.2008C228.094 24.1188 227.192 26.9906 227.503 30.5777C227.928 35.3986 229.732 37.3062 234.926 38.4466C235.445 38.5607 236.699 38.7991 237.726 38.965C240.017 39.359 240.587 39.4937 241.738 39.9084C244.464 40.8933 245.667 42.6765 245.688 45.766C245.698 47.1553 245.553 47.881 245.024 49.0214C244.454 50.2448 243.283 51.4163 242.028 52.0176C240.815 52.5982 240.11 52.7641 238.648 52.8366C233.485 53.0751 229.649 50.1307 228.54 45.0818C228.385 44.3561 228.136 42.324 228.136 41.6916C228.136 41.5983 228.022 41.5672 227.804 41.588L227.462 41.6191L227.431 47.3937L227.41 53.1788H227.763C228.115 53.1788 228.115 53.1684 228.188 52.6293C228.291 51.8932 228.499 51.5303 228.924 51.3541C229.411 51.1467 230.043 51.3126 231.661 52.0383C234.408 53.2824 236.036 53.6453 238.503 53.5624C241.531 53.4587 243.531 52.65 245.263 50.815C246.859 49.1147 247.72 46.8754 247.896 43.8999C248.103 40.3853 247.119 37.6691 245.097 36.2384C243.459 35.0772 241.79 34.4966 237.954 33.7813C232.76 32.8067 230.79 31.9981 229.971 30.4844C229.131 28.95 229.183 26.0783 230.085 24.2018C230.8 22.7088 231.972 21.6928 233.631 21.1019C234.47 20.8012 234.584 20.7805 236.119 20.7909C237.56 20.8012 237.819 20.8323 238.659 21.0811C240.048 21.5062 241.085 22.0868 242.049 22.9888C242.505 23.4242 243.065 24.0566 243.293 24.3884C244.268 25.8191 244.972 27.7682 245.242 29.738L245.377 30.6814H245.719H246.071V25.8605V21.0397H245.719C245.398 21.0397 245.356 21.0811 245.294 21.3714C245.076 22.3563 244.516 22.8747 243.791 22.7503C243.573 22.7088 242.733 22.2941 241.924 21.8172C240.286 20.8531 239.136 20.3865 237.809 20.1584C236.844 19.9926 235.258 19.9718 234.377 20.117Z" fill="#5E0070"/>
<path d="M186.407 64.2615C184.406 70.285 184.447 70.1814 183.649 70.1814C183.421 70.1814 183.245 70.2228 183.245 70.285C183.245 70.3472 183.867 70.3887 184.904 70.3887C185.94 70.3887 186.562 70.3472 186.562 70.285C186.562 70.2228 186.345 70.1814 186.075 70.1814C185.484 70.1814 185.069 69.9947 185.038 69.7148C185.018 69.6008 185.215 68.8958 185.453 68.1597L185.899 66.8119H187.641H189.382L189.942 68.4085C190.253 69.2794 190.502 70.0362 190.502 70.088C190.502 70.1399 190.149 70.1814 189.724 70.1814C189.279 70.1814 188.947 70.2228 188.947 70.285C188.947 70.3472 189.807 70.3887 191.331 70.3887C192.855 70.3887 193.716 70.3472 193.716 70.285C193.716 70.2228 193.426 70.1814 193.042 70.1814C192.669 70.1814 192.368 70.171 192.368 70.1503C192.327 69.86 188.428 58.829 188.346 58.7979C188.294 58.7875 187.423 61.2135 186.407 64.2615ZM188.47 64.0542C188.905 65.3294 189.258 66.3869 189.258 66.4076C189.258 66.4283 188.532 66.4491 187.641 66.4491C186.241 66.4491 186.034 66.4283 186.085 66.2936C186.117 66.2106 186.448 65.1635 186.832 63.9816C187.527 61.8356 187.589 61.6386 187.651 61.7008C187.672 61.7215 188.035 62.779 188.47 64.0542Z" fill="#5E0070"/>
<path d="M173.499 59.1918C173.499 59.254 173.831 59.2955 174.277 59.2955H175.054V64.7384V70.1813H174.277C173.831 70.1813 173.499 70.2228 173.499 70.285C173.499 70.4612 179.336 70.4198 180.124 70.2331C182.581 69.6526 184.074 67.5894 184.074 64.7902C184.074 63.0485 183.514 61.6282 182.426 60.5292C181.71 59.8242 181.13 59.4821 180.207 59.2333C179.543 59.057 173.499 59.0156 173.499 59.1918ZM179.461 59.6065C180.705 60.0316 181.482 60.8713 181.918 62.1984C182.218 63.1418 182.301 65.5471 182.063 66.6564C181.835 67.7346 181.379 68.6158 180.746 69.186C180.01 69.8496 179.305 70.088 177.885 70.1606L176.713 70.2124V64.7384V59.2644L177.781 59.3266C178.455 59.3577 179.067 59.4614 179.461 59.6065Z" fill="#5E0070"/>
<path d="M150.888 66.7083C145.569 67.5688 141.215 70.5546 138.374 75.2822C136.332 78.6827 135.357 82.1869 135.347 86.1265L135.337 87.7542L135.046 87.1321C133.668 84.1671 130.796 81.6478 127.468 80.4659C125.913 79.9164 125.011 79.7816 123.113 79.7816C121.6 79.7816 121.289 79.8231 120.397 80.0615C116.364 81.1398 113.399 84.1567 112.321 88.2829C112.114 89.0709 112.072 89.4545 112.083 90.8644C112.083 92.3677 112.114 92.6062 112.362 93.4356C113.295 96.4732 115.473 98.7022 118.5 99.739L119.226 99.9878L104.037 100.009C59.2396 100.071 6.2101 100.33 1.8143 100.527L0 100.599L1.39961 100.672C3.83596 100.807 26.4266 100.973 58.1614 101.087C98.0242 101.242 268.973 101.242 308.898 101.087C340.737 100.973 363.39 100.807 365.815 100.672L367.215 100.599L365.401 100.527C360.995 100.34 307.882 100.071 263.074 100.009C248.093 99.9878 247.792 99.9878 248.404 99.8012C249.876 99.345 251.649 98.2357 252.593 97.1782C254.231 95.3224 255.019 93.2904 255.019 90.8644C255.019 85.6081 251.411 81.1294 246.227 79.9475C245.18 79.7091 242.567 79.7194 241.406 79.9579C237.384 80.8184 233.962 83.3584 232.158 86.8419C231.93 87.2877 231.733 87.6609 231.713 87.6816C231.702 87.692 231.713 87.2773 231.744 86.7486C231.806 85.5148 231.619 83.5346 231.298 81.9484C230.624 78.5894 228.913 75.1266 226.632 72.4622C224.735 70.2436 221.863 68.336 219.033 67.3925C217.074 66.7394 216.192 66.615 213.621 66.615C211.589 66.615 211.154 66.6357 210.231 66.843C208.738 67.1644 207.432 67.6206 206.157 68.2634C201.284 70.7101 198.392 74.7949 197.873 79.9786C197.811 80.5799 197.79 82.0625 197.832 83.4517C197.873 85.1623 197.852 86.1472 197.769 86.7693C197.583 88.0237 197.096 89.8381 196.66 90.8955C196.287 91.8079 195.696 92.9276 195.623 92.8653C195.603 92.8446 195.675 92.3988 195.789 91.8701C196.432 88.6976 195.934 86.168 194.11 83.4621C192.606 81.2434 189.984 79.3669 187.392 78.6619C186.562 78.4339 186.334 78.4235 183.504 78.4339C180.756 78.4339 180.425 78.4546 179.699 78.6516C177.055 79.398 174.526 81.1812 173.002 83.3791C172.317 84.364 171.623 85.8258 171.301 86.9248C171.094 87.6505 171.063 87.9719 171.073 89.4648C171.073 91.0821 171.125 91.4761 171.488 92.8342C171.571 93.166 170.907 92.0671 170.586 91.3621C170.182 90.4601 169.715 88.9568 169.446 87.692C169.228 86.6967 169.207 86.3235 169.197 82.9852C169.186 79.6157 169.176 79.284 168.958 78.3717C168.627 76.9617 168.357 76.1841 167.797 75.0022C166.429 72.1408 164.086 69.8496 160.903 68.2738C159.451 67.548 158.363 67.1748 156.808 66.843C155.501 66.5735 152.184 66.4906 150.888 66.7083ZM156.911 69.4038C163.049 70.7619 167.3 75.1059 167.922 80.6629C168.43 85.2764 165.858 90.0972 161.857 92.0567C160.198 92.8653 159.462 93.0209 157.43 93.0209C155.398 93.0209 154.662 92.8653 153.024 92.0671C151.043 91.1132 149.768 89.8899 148.918 88.1689C148.286 86.8833 148.099 86.1783 148.026 84.8513C147.933 82.9437 148.555 81.1501 149.737 79.9371C151.116 78.5272 152.599 78.3302 154.527 79.3047C155.926 80.0097 157.233 80.2171 157.948 79.8438C158.435 79.5846 158.798 78.8797 158.715 78.3717C158.498 77.1379 157.067 76.2152 155.201 76.1219C153.957 76.0493 152.972 76.2671 151.728 76.8787C150.909 77.2831 150.587 77.5215 149.851 78.2576C148.078 80.0304 147.27 82.0521 147.27 84.6751C147.27 87.7024 148.628 90.3046 151.116 92.0774C155.076 94.9077 160.467 94.7937 164.376 91.7871C165.703 90.7711 167.393 88.6562 167.859 87.4224C168.077 86.873 168.212 86.9352 168.212 87.5987C168.212 88.2829 168.564 90.035 168.896 91.0614C169.974 94.3272 172.276 97.3959 174.982 99.1895L176.102 99.9359H160.25H144.398L143.465 98.9718C139.608 94.9803 137.783 89.4026 138.509 83.8353C139.204 78.4961 142.314 73.5819 146.554 71.1041C147.985 70.2747 149.716 69.6526 151.572 69.3105C152.671 69.1032 155.802 69.155 156.911 69.4038ZM216.006 69.4038C220.091 70.3058 223.367 72.5659 225.679 76.0908C226.384 77.169 227.431 79.3669 227.814 80.5592C229.287 85.2245 228.934 90.0247 226.798 94.3894C226.456 95.0736 225.959 95.9859 225.679 96.411C225.046 97.3648 223.73 98.951 223.087 99.5109L222.61 99.9359H206.8H190.979L192.161 99.1377C195.789 96.6806 198.319 92.4403 198.817 88.003L198.941 86.8833L199.356 87.7335C200.828 90.7089 203.534 92.9276 206.727 93.7881C207.66 94.0369 207.94 94.068 209.526 94.068C211.112 94.068 211.392 94.0369 212.325 93.7881C215.176 93.0209 217.654 91.0925 218.847 88.708C221.231 83.9597 219.012 78.0088 214.274 76.4226C213.227 76.0804 211.309 76.0286 210.449 76.3293C208.396 77.0446 207.65 78.9522 209.08 79.8231C209.796 80.2585 210.864 80.0615 212.896 79.1388C213.694 78.7656 213.86 78.7345 214.658 78.7345C215.415 78.7345 215.622 78.776 216.13 79.0248C216.846 79.3773 217.789 80.3622 218.256 81.2331C219.012 82.6534 219.251 84.6854 218.857 86.3028C218.618 87.298 217.789 88.9776 217.198 89.6722C215.363 91.8182 212.543 93.0934 209.64 93.0934C208.396 93.0934 207.567 92.9483 206.343 92.5336C204.809 92.0152 203.886 91.4346 202.673 90.2424C200.89 88.4903 199.812 86.5205 199.314 84.0737C199.003 82.5601 199.055 80.3518 199.449 78.8589C199.988 76.8165 201.087 74.94 202.684 73.3434C204.861 71.1559 207.888 69.7045 211.289 69.2068C212.014 69.1032 215.249 69.2379 216.006 69.4038ZM178.102 81.3989C176.537 83.037 175.811 84.6543 175.708 86.8211C175.604 88.905 176.195 90.6571 177.46 92.0048C178.331 92.9379 179.264 93.4045 180.259 93.4045C181.617 93.4045 182.001 93.0105 182.001 91.642C182.001 90.9785 181.907 90.4186 181.565 89.1227C180.86 86.3753 180.974 85.1001 182.104 83.4206C182.799 82.3942 183.359 81.8551 183.659 81.9484C183.97 82.0417 185.038 83.4206 185.411 84.2085C186.096 85.6289 186.096 86.8004 185.432 89.4026C184.821 91.7664 184.872 92.7202 185.65 93.1971C185.94 93.3837 186.127 93.4148 186.821 93.3837C187.889 93.3422 188.636 92.9898 189.507 92.1189C190.72 90.9059 191.362 89.2056 191.362 87.2358C191.352 84.955 190.595 83.0992 189.009 81.4508C188.698 81.1294 188.501 80.8598 188.563 80.8598C188.843 80.8598 190.336 81.5959 190.937 82.0314C192.586 83.2029 193.716 84.872 194.296 86.9766C194.587 88.0237 194.566 90.3875 194.255 91.4865C193.695 93.4148 192.71 95.0218 191.145 96.5354C188.47 99.1169 185.411 100.185 182.052 99.7182C178.569 99.2413 175.148 96.6598 173.499 93.2593C172.38 90.9577 172.214 88.6562 173.002 86.2716C173.8 83.8664 175.687 81.8447 177.874 81.0672C178.673 80.7873 178.683 80.808 178.102 81.3989ZM125.239 81.2953C127.831 81.6892 130.319 82.9748 132.237 84.8928C134.082 86.7486 134.87 88.1793 136.062 91.8182C137.213 95.3224 138.043 96.9605 139.701 99.0754L140.417 99.9878L136.176 100.019C133.833 100.029 129.997 100.029 127.654 100.019L123.373 99.9878L124.129 99.6975C126.151 98.8992 127.893 97.1678 128.691 95.1669C129.116 94.0783 129.251 93.2386 129.21 91.9012C129.168 90.8126 129.116 90.5534 128.826 89.8173C127.24 85.7533 122.481 84.0012 118.915 86.1576C115.887 87.9926 115.068 92.0878 117.245 94.5138C118.168 95.5401 119.775 96.0689 120.636 95.6335C121.527 95.1773 121.569 94.8248 120.864 93.4356C120.065 91.8493 120.128 90.7297 121.071 89.7033C122.129 88.5525 124.129 88.7806 125.436 90.2009C126.68 91.5383 126.846 93.3008 125.913 95.2291C125.602 95.8823 125.353 96.214 124.783 96.7428C122.854 98.5778 120.179 98.8163 117.474 97.4167C116.862 97.1056 116.416 96.7635 115.804 96.1518C114.861 95.2084 114.312 94.3375 113.918 93.1453C113.658 92.3988 113.638 92.1707 113.627 90.7608C113.627 89.0605 113.721 88.5836 114.363 87.0596C115.234 84.955 117.194 82.9644 119.319 82.0003C121.133 81.1812 122.999 80.9531 125.239 81.2953ZM245.449 81.2849C248.103 81.7618 250.654 83.5243 252.043 85.8155C253.059 87.5157 253.453 88.8531 253.463 90.7089C253.474 92.2329 253.329 92.9172 252.675 94.2339C252.323 94.9492 252.064 95.3017 251.255 96.1104C250.426 96.9605 250.135 97.1782 249.389 97.5307C248.217 98.0905 247.274 98.3083 246.123 98.2979C242.951 98.2875 240.452 95.7475 240.597 92.6891C240.649 91.5383 240.971 90.8022 241.759 90.035C242.619 89.2056 243.936 88.7806 244.89 89.0398C246.03 89.3508 246.756 90.3772 246.735 91.6731C246.725 92.3055 246.662 92.5025 246.185 93.4563C245.895 94.0472 245.657 94.6485 245.657 94.7833C245.657 95.1047 246.092 95.5401 246.559 95.6957C248.186 96.2244 250.332 94.6589 250.892 92.5232C251.628 89.6929 249.845 86.593 246.88 85.5563C244.278 84.644 240.991 85.6807 239.27 87.9408C237.114 90.7919 237.332 94.5967 239.83 97.5411C240.618 98.4638 241.645 99.1377 243.48 99.9152C243.666 99.9982 241.334 100.029 235.217 100.029C230.52 100.04 226.684 100.019 226.684 99.9774C226.684 99.9463 226.933 99.6146 227.244 99.231C228.976 97.0538 230.043 94.9388 230.987 91.8182C232.034 88.3659 233.029 86.6241 235.04 84.6958C236.119 83.6591 236.844 83.1407 238.14 82.4979C240.566 81.2745 243.086 80.8598 245.449 81.2849ZM179.751 83.2651C179.16 84.9446 179.336 86.479 180.363 88.6562C180.871 89.7344 180.912 89.8899 180.912 90.5741C180.912 91.4346 180.725 91.7768 180.093 92.0982C179.751 92.264 179.647 92.2744 179.284 92.1707C178.051 91.7975 177.128 90.0869 177.128 88.1585C177.128 86.3961 177.812 84.7476 179.118 83.3895C179.575 82.9126 179.969 82.5186 179.979 82.5186C180 82.5186 179.896 82.8608 179.751 83.2651ZM188.086 83.5035C189.113 84.6647 189.662 85.8777 189.901 87.5054C190.046 88.4903 189.849 89.6929 189.361 90.6674C188.46 92.5129 186.583 92.7617 186.137 91.1029C185.982 90.5016 186.096 89.9728 186.666 88.7391C187.485 86.9663 187.547 86.6863 187.547 85.1623C187.547 83.9493 187.516 83.7524 187.278 83.1718L186.998 82.5186L187.298 82.7363C187.464 82.8504 187.817 83.1925 188.086 83.5035Z" fill="#5E0070"/>
<path d="M119.537 111.973C114.882 112.563 110.351 115.653 107.583 120.111C105.416 123.605 104.348 127.43 104.348 131.712C104.348 136.647 105.769 141.001 108.62 144.796C111.149 148.176 114.861 150.581 118.676 151.307C126.98 152.893 135.243 146.818 137.68 137.311C138.219 135.196 138.395 133.558 138.322 131.038C138.26 128.778 138.136 127.824 137.628 125.896C135.264 116.928 127.52 110.967 119.537 111.973ZM123.808 113.061C129.272 114.43 132.237 120.992 132.237 131.712C132.237 144.008 128.422 150.654 121.351 150.654C115.338 150.654 111.813 146.061 110.714 136.792C110.444 134.605 110.444 128.851 110.704 126.632C111.502 119.862 113.648 115.529 117.1 113.725C119.039 112.719 121.486 112.47 123.808 113.061Z" fill="#5E0070"/>
<path d="M148.991 111.973C147.529 112.19 146.077 112.719 144.937 113.465C144.014 114.067 142.635 115.508 142.055 116.482C141.008 118.245 140.531 120.204 140.531 122.755C140.531 128.291 142.127 131.152 146.057 132.676C147.736 133.329 149.074 133.651 152.661 134.252C156.974 134.978 158.892 135.714 160.312 137.197C161.515 138.451 162.033 140.048 162.023 142.442C162.023 144.06 161.815 145.003 161.204 146.237C159.711 149.264 156.134 150.985 152.07 150.633C145.715 150.073 141.806 145.646 141.391 138.524L141.329 137.362H140.925H140.531V144.205V151.047H140.946C141.36 151.047 141.36 151.047 141.36 150.653C141.36 149.928 141.651 149.192 142.013 148.974C142.656 148.57 143.372 148.736 145.766 149.803C147.467 150.56 148.96 151.068 150.245 151.327C151.51 151.576 154.434 151.576 155.709 151.327C159.752 150.519 162.624 148.02 163.899 144.205C164.998 140.898 164.874 136.263 163.619 133.775C162.779 132.106 161.66 131.028 159.762 130.084C158.207 129.297 156.466 128.809 152.92 128.135C145.59 126.757 143.62 125.72 142.957 122.879C142.739 121.946 142.801 119.157 143.06 118.234C144.118 114.45 147.436 112.356 151.686 112.792C154.392 113.071 156.341 113.953 158.052 115.694C159.897 117.571 161.131 120.329 161.504 123.387L161.618 124.403H162.064H162.51V118.753V113.103H162.054C161.608 113.103 161.597 113.113 161.546 113.486C161.442 114.139 161.048 114.792 160.644 115C160.011 115.332 159.379 115.124 157.523 113.984C156.279 113.217 155.491 112.833 154.423 112.481C152.796 111.931 150.649 111.734 148.991 111.973Z" fill="#5E0070"/>
<path d="M181.949 111.973C175.376 112.874 169.643 118.328 167.59 125.616C166.989 127.752 166.823 129.089 166.823 131.712C166.823 133.744 166.854 134.294 167.061 135.434C167.839 139.83 169.663 143.521 172.504 146.475C176.693 150.819 182.612 152.592 187.35 150.933C188.594 150.508 189.641 149.917 191.425 148.673C192.244 148.103 193.125 147.554 193.374 147.46C193.809 147.294 193.851 147.294 194.317 147.481C194.95 147.74 195.323 148.29 195.551 149.254L195.727 150.011H196.121C196.505 150.011 196.515 150.021 196.515 150.374V150.736H202.062H207.608V150.28V149.824L205.618 149.783C203.762 149.752 203.586 149.731 203.171 149.513C202.155 148.974 202.207 148.435 203.72 143.79C204.311 141.997 204.944 140.048 205.13 139.457L205.473 138.399H211.247H217.012L218.919 144.018C219.966 147.108 220.847 149.669 220.858 149.72C220.879 149.762 219.707 149.803 218.245 149.803H215.591V150.27V150.736L227.649 150.716L239.696 150.685L239.727 150.239L239.758 149.803H238.057C236.098 149.803 235.434 149.669 234.895 149.15C234.221 148.497 234.253 149.472 234.253 131.567C234.253 115.736 234.253 115.342 234.45 115.539C234.553 115.653 239.83 122.931 246.186 131.712C252.53 140.493 258.264 148.424 258.927 149.337C260.078 150.923 260.15 150.996 260.493 150.996H260.845L260.897 132.956C260.949 116.462 260.959 114.886 261.115 114.606C261.56 113.808 261.913 113.694 264.163 113.631L266.029 113.569V113.154V112.74L260.358 112.709L254.676 112.688V113.154V113.621H256.418C259.02 113.621 259.591 113.87 259.86 115.093C259.943 115.487 259.964 119.188 259.943 128.27L259.912 140.898L249.7 126.798L239.488 112.688L233.838 112.719L228.188 112.74V113.154V113.569L230.759 113.6L233.32 113.621V130.707C233.32 149.389 233.351 148.518 232.729 149.098C232.055 149.72 231.92 149.752 229.328 149.783L226.944 149.824L220.402 130.862L213.86 111.91L213.538 111.879L213.227 111.848L207.256 129.763C203.078 142.297 201.16 147.896 200.89 148.404C200.621 148.901 200.351 149.233 200.05 149.44C199.615 149.752 199.584 149.752 198.06 149.783L196.515 149.824V143.541V137.259H196.111H195.706L195.644 138.057C195.323 141.717 193.913 144.868 191.497 147.274C190.927 147.844 190.149 148.518 189.787 148.767C187.008 150.633 183.753 151.161 180.819 150.218C179.45 149.772 178.683 149.285 177.48 148.093C175.988 146.6 175.096 145.024 174.246 142.339C172.722 137.549 172.473 129.286 173.665 123.387C174.111 121.148 174.92 118.908 175.863 117.312C176.433 116.348 177.854 114.803 178.714 114.222C182.457 111.682 188.045 112.481 191.715 116.088C193.975 118.297 195.24 120.889 195.592 123.978L195.717 125.025H196.111H196.515V119.271V113.517H196.111H195.717L195.592 114.108C195.437 114.917 195.147 115.352 194.618 115.591C193.654 116.037 193.083 115.85 190.782 114.326C188.024 112.512 186.573 111.983 184.074 111.91C183.307 111.89 182.353 111.91 181.949 111.973ZM214.181 130.012C215.57 134.086 216.68 137.445 216.659 137.487C216.638 137.539 214.192 137.57 211.216 137.57H205.825L205.887 137.331C206.001 136.886 211.04 121.365 211.102 121.251C211.144 121.2 211.278 121.479 211.413 121.884C211.548 122.288 212.792 125.948 214.181 130.012Z" fill="#5E0070"/>
<path d="M272.508 129.628C269.253 139.394 266.433 147.72 266.246 148.103C265.863 148.901 265.282 149.503 264.743 149.689C264.546 149.752 263.789 149.803 263.064 149.803H261.726V150.27V150.736H267.273H272.819V150.27V149.803H271.047C269.087 149.803 268.496 149.7 268.05 149.285C267.387 148.663 267.459 148.259 269.305 142.619L270.684 138.399H276.438H282.202L284.13 144.081L286.059 149.752L283.436 149.783L280.802 149.803V150.27V150.736H288.682H296.561V150.27V149.803H294.342H292.124L291.761 148.736C291.398 147.657 279.361 112.812 279.144 112.19C279.04 111.921 278.967 111.859 278.729 111.859H278.439L272.508 129.628ZM279.133 129.307C280.626 133.692 281.839 137.342 281.839 137.425C281.839 137.549 281.051 137.57 276.448 137.57C272.622 137.57 271.057 137.539 271.057 137.456C271.057 137.394 271.835 134.957 272.778 132.044C273.721 129.12 274.893 125.492 275.391 123.957C275.878 122.433 276.313 121.22 276.355 121.262C276.396 121.314 277.651 124.932 279.133 129.307Z" fill="#5E0070"/>
<path d="M70.6541 118.286V123.885H71.0481H71.4524L71.5146 122.247C71.6494 118.836 72.2507 116.897 73.5466 115.653C74.2724 114.969 75.1329 114.523 76.3873 114.191C77.818 113.818 78.7407 113.714 81.6747 113.652L84.3391 113.59V131.702V149.803H81.5918H78.8444V150.27V150.736H87.1384H95.4323V150.27V149.803H92.6331H89.8339V131.702V113.59L92.5605 113.652C96.1788 113.725 97.8065 113.984 99.3512 114.72C100.699 115.363 101.653 116.555 102.161 118.224C102.41 119.043 102.69 121.003 102.69 121.956C102.69 122.319 102.721 122.9 102.752 123.252L102.824 123.885H103.218H103.623V118.286V112.688H87.1384H70.6541V118.286Z" fill="#5E0070"/>
<path d="M109.014 162.244C90.5702 162.275 76.4704 162.327 77.6938 162.369C78.9171 162.421 94.2195 162.452 111.709 162.452C146.15 162.452 165.185 162.535 164.78 162.68C164.335 162.846 163.858 163.291 163.547 163.831C163.277 164.297 163.236 164.473 163.236 165.158C163.236 165.831 163.277 166.039 163.557 166.578C163.92 167.304 164.293 167.666 165.102 168.029C165.776 168.34 166.854 168.382 167.59 168.112C168.326 167.843 169.114 167.241 169.487 166.671L169.819 166.153L169.84 166.609C169.985 169.045 171.343 171.067 173.365 171.813C174.235 172.135 175.905 172.125 176.724 171.803C177.999 171.295 178.942 170.341 179.336 169.149C179.461 168.797 179.513 168.278 179.513 167.532C179.513 166.464 179.678 165.52 179.958 164.992C180.072 164.774 180.083 164.836 180.083 165.489C180.083 166.422 180.446 167.221 181.13 167.832C181.938 168.537 182.198 168.62 183.659 168.62H184.966L185.567 168.257C186.676 167.594 187.226 166.63 187.164 165.448C187.143 164.847 187.153 164.753 187.267 164.909C187.547 165.292 187.703 166.132 187.703 167.221C187.703 167.874 187.765 168.568 187.858 168.931C188.449 171.191 191.02 172.57 193.457 171.938C194.348 171.699 195.033 171.295 195.738 170.59C196.712 169.605 197.251 168.423 197.407 166.92L197.469 166.194L197.801 166.682C198.205 167.283 199.003 167.895 199.677 168.123C200.496 168.392 201.564 168.351 202.248 168.009C202.912 167.687 203.492 167.086 203.803 166.402C204.114 165.728 204.114 164.536 203.803 163.955C203.555 163.488 203.036 162.96 202.59 162.742C202.331 162.607 203.544 162.586 212.958 162.524C218.826 162.483 238.203 162.441 256.024 162.441C273.846 162.431 289.19 162.389 290.133 162.358C292.31 162.275 198.983 162.13 166.864 162.161C153.49 162.182 127.458 162.213 109.014 162.244ZM171.177 162.638C171.146 162.69 170.959 162.97 170.762 163.26C170.565 163.551 170.265 164.225 170.088 164.764C169.456 166.65 168.596 167.521 167.04 167.843C166.035 168.05 165.164 167.781 164.459 167.044C163.412 165.956 163.391 164.411 164.407 163.52C164.77 163.198 165.34 162.97 165.765 162.97C166.138 162.97 166.854 163.395 167.072 163.737C167.372 164.235 167.351 164.981 167.03 165.303C166.294 166.039 165.237 165.448 165.662 164.546C165.9 164.059 165.869 163.81 165.579 163.737C165.268 163.665 164.77 163.913 164.542 164.256C164.283 164.67 164.324 165.531 164.625 165.987C165.154 166.754 166.335 166.951 167.196 166.402C168.44 165.614 168.378 163.675 167.092 162.856L166.615 162.555H168.927C170.192 162.555 171.208 162.597 171.177 162.638ZM181.171 162.742C180.394 163.25 179.492 164.587 179.347 165.448C179.243 166.122 179.212 166.132 178.88 165.624C178.3 164.753 177.273 164.214 176.205 164.214C175.407 164.214 174.743 164.453 174.184 164.95C173.551 165.51 173.292 166.08 173.292 166.92C173.302 168.299 174.153 169.294 175.366 169.336C176.153 169.356 176.661 168.931 176.464 168.413C176.392 168.216 175.718 168.216 175.366 168.413C175.023 168.61 174.432 168.61 174.142 168.403C173.541 167.988 173.323 166.837 173.696 166.028C174.474 164.307 177.076 164.007 178.331 165.479C178.88 166.132 179.15 166.879 179.15 167.739C179.15 168.703 178.88 169.336 178.185 170.051C176.102 172.197 172.68 171.575 171.301 168.807C170.358 166.93 170.596 164.774 171.934 163.094L172.359 162.555L176.9 162.566C181.151 162.566 181.41 162.576 181.171 162.742ZM184.831 162.846C186.22 163.457 187.039 165.012 186.666 166.339C186.521 166.858 185.961 167.563 185.515 167.791C185.101 168.009 185.038 167.988 185.298 167.708C185.868 167.107 186.013 165.863 185.619 165.147C185.349 164.681 184.872 164.39 184.437 164.442C184.136 164.473 184.126 164.494 184.147 164.94C184.147 165.199 184.188 165.728 184.23 166.132C184.282 166.765 184.261 166.899 184.085 167.2C183.784 167.666 183.577 167.729 183.338 167.418C182.944 166.91 182.882 166.464 183.089 165.562C183.307 164.608 183.234 164.421 182.675 164.421C181.928 164.421 181.306 165.386 181.399 166.391C181.43 166.723 181.565 167.096 181.773 167.428C181.949 167.718 182.063 167.946 182.011 167.946C181.97 167.946 181.742 167.812 181.513 167.646C180.373 166.827 180.166 165.303 181.016 164.048C181.918 162.732 183.462 162.244 184.831 162.846ZM195.271 163.043C196.66 164.618 196.919 166.951 195.924 168.921C195.084 170.569 193.125 171.606 191.425 171.285C190.108 171.046 189.051 170.321 188.47 169.273C188.2 168.776 188.169 168.631 188.169 167.739C188.169 166.868 188.2 166.692 188.449 166.236C189.362 164.515 191.373 163.986 192.804 165.075C193.903 165.914 194.11 167.366 193.249 168.226C192.855 168.62 192.503 168.662 191.86 168.403C191.373 168.206 190.927 168.247 190.772 168.496C190.616 168.745 190.782 168.983 191.269 169.232C192.182 169.688 193.509 168.921 193.861 167.729C194.068 167.055 194.068 166.775 193.871 166.122C193.674 165.458 193.249 164.95 192.565 164.577C192.057 164.297 191.912 164.266 191.072 164.266C190.264 164.266 190.067 164.307 189.621 164.546C189.061 164.836 188.574 165.303 188.242 165.852L188.035 166.205L187.962 165.686C187.827 164.66 187.112 163.499 186.21 162.846L185.806 162.555H190.326H194.836L195.271 163.043ZM200.289 162.752C199.086 163.478 198.786 165.054 199.656 166.049C200.061 166.516 200.507 166.702 201.18 166.702C201.823 166.702 202.217 166.516 202.601 166.008C202.839 165.697 202.891 165.531 202.891 165.023C202.891 164.442 202.87 164.38 202.508 164.048C202.093 163.675 201.699 163.592 201.491 163.851C201.377 163.986 201.388 164.079 201.523 164.38C201.761 164.867 201.74 165.137 201.471 165.427C201.139 165.78 200.714 165.738 200.289 165.313C199.304 164.328 200.558 162.68 201.989 163.074C203.451 163.457 204.063 165.033 203.285 166.402C202.715 167.428 201.543 168.04 200.455 167.895C199.739 167.801 198.775 167.314 198.278 166.796C197.77 166.267 197.459 165.697 197.127 164.629C196.992 164.204 196.691 163.561 196.453 163.208L196.017 162.555H198.309C200.6 162.555 200.61 162.555 200.289 162.752ZM182.768 164.898C182.986 165.106 182.975 165.209 182.706 165.769C182.571 166.049 182.488 166.454 182.478 166.796V167.345L182.239 167.076C181.742 166.485 181.679 165.552 182.115 165.002C182.353 164.691 182.54 164.66 182.768 164.898ZM184.955 164.795C185.588 165.044 185.536 166.754 184.872 167.304C184.748 167.407 184.738 167.355 184.779 166.93C184.81 166.557 184.769 166.288 184.603 165.925C184.354 165.365 184.323 165.044 184.51 164.857C184.655 164.712 184.717 164.701 184.955 164.795Z" fill="#5E0070"/>
</svg>
